REM DIRINDEX 1\2,1\4,1\3\5,1\3\6,1\3\7
REM DIRNAME cjc083,folder01,folder02,folder03,folder04,folder05,folder06
TITLE ""
FILE "CD1Track19.mp3" MP3
  TRACK 01 AUDIO
    TITLE "0:"
    INDEX 01 00:00:00
  TRACK 02 AUDIO
    TITLE "5:cjc083_0386"
    INDEX 01 00:00:29
  TRACK 03 AUDIO
    TITLE "0:"
    INDEX 01 00:01:26
  TRACK 04 AUDIO
    TITLE "6:cjc083_0387"
    INDEX 01 00:01:69
  TRACK 05 AUDIO
    TITLE "0:"
    INDEX 01 00:03:51
  TRACK 06 AUDIO
    TITLE "5:cjc083_0388"
    INDEX 01 00:04:17
  TRACK 07 AUDIO
    TITLE "0:"
    INDEX 01 00:05:30
  TRACK 08 AUDIO
    TITLE "6:cjc083_0389"
    INDEX 01 00:06:04
  TRACK 09 AUDIO
    TITLE "0:"
    INDEX 01 00:07:33
  TRACK 10 AUDIO
    TITLE "5:cjc083_0390"
    INDEX 01 00:07:74
  TRACK 11 AUDIO
    TITLE "0:"
    INDEX 01 00:09:08
  TRACK 12 AUDIO
    TITLE "6:cjc083_0391"
    INDEX 01 00:09:53
  TRACK 13 AUDIO
    TITLE "0:"
    INDEX 01 00:10:59
  TRACK 14 AUDIO
    TITLE "5:cjc083_0392"
    INDEX 01 00:11:27
  TRACK 15 AUDIO
    TITLE "0:"
    INDEX 01 00:12:44
  TRACK 16 AUDIO
    TITLE "6:cjc083_0393"
    INDEX 01 00:13:12
  TRACK 17 AUDIO
    TITLE "0:"
    INDEX 01 00:14:35
  TRACK 18 AUDIO
    TITLE "5:cjc083_0394"
    INDEX 01 00:15:07
  TRACK 19 AUDIO
    TITLE "0:"
    INDEX 01 00:16:28
  TRACK 20 AUDIO
    TITLE "6:cjc083_0395"
    INDEX 01 00:16:71
  TRACK 21 AUDIO
    TITLE "0:"
    INDEX 01 00:18:48
  TRACK 22 AUDIO
    TITLE "5:cjc083_0396"
    INDEX 01 00:19:18
  TRACK 23 AUDIO
    TITLE "0:"
    INDEX 01 00:20:41
  TRACK 24 AUDIO
    TITLE "6:cjc083_0397"
    INDEX 01 00:21:13
  TRACK 25 AUDIO
    TITLE "0:"
    INDEX 01 00:23:04
  TRACK 26 AUDIO
    TITLE "5:cjc083_0398"
    INDEX 01 00:23:44
  TRACK 27 AUDIO
    TITLE "0:"
    INDEX 01 00:24:43
  TRACK 28 AUDIO
    TITLE "6:cjc083_0399"
    INDEX 01 00:25:19
  TRACK 29 AUDIO
    TITLE "0:"
    INDEX 01 00:26:40
  TRACK 30 AUDIO
    TITLE "5:cjc083_0400"
    INDEX 01 00:27:08
  TRACK 31 AUDIO
    TITLE "0:"
    INDEX 01 00:28:21
  TRACK 32 AUDIO
    TITLE "6:cjc083_0401"
    INDEX 01 00:28:72
  TRACK 33 AUDIO
    TITLE "0:"
    INDEX 01 00:31:12
  TRACK 34 AUDIO
    TITLE "5:cjc083_0402"
    INDEX 01 00:31:57
  TRACK 35 AUDIO
    TITLE "0:"
    INDEX 01 00:32:72
  TRACK 36 AUDIO
    TITLE "6:cjc083_0403"
    INDEX 01 00:33:42
  TRACK 37 AUDIO
    TITLE "0:"
    INDEX 01 00:34:61
  TRACK 38 AUDIO
    TITLE "5:cjc083_0404"
    INDEX 01 00:35:33
  TRACK 39 AUDIO
    TITLE "0:"
    INDEX 01 00:36:44
  TRACK 40 AUDIO
    TITLE "6:cjc083_0405"
    INDEX 01 00:37:12
  TRACK 41 AUDIO
    TITLE "0:"
    INDEX 01 00:38:22
  TRACK 42 AUDIO
    TITLE "5:cjc083_0406"
    INDEX 01 00:39:02
  TRACK 43 AUDIO
    TITLE "0:"
    INDEX 01 00:40:15
  TRACK 44 AUDIO
    TITLE "6:cjc083_0407"
    INDEX 01 00:40:60
  TRACK 45 AUDIO
    TITLE "0:"
    INDEX 01 00:41:57
  TRACK 46 AUDIO
    TITLE "5:cjc083_0408"
    INDEX 01 00:42:27
  TRACK 47 AUDIO
    TITLE "0:"
    INDEX 01 00:43:58
  TRACK 48 AUDIO
    TITLE "6:cjc083_0409"
    INDEX 01 00:44:24
  TRACK 49 AUDIO
    TITLE "0:"
    INDEX 01 00:46:27
  TRACK 50 AUDIO
    TITLE "5:cjc083_0410"
    INDEX 01 00:46:74
  TRACK 51 AUDIO
    TITLE "0:"
    INDEX 01 00:48:14
  TRACK 52 AUDIO
    TITLE "6:cjc083_0411"
    INDEX 01 00:48:55
  TRACK 53 AUDIO
    TITLE "0:"
    INDEX 01 00:49:69
  TRACK 54 AUDIO
    TITLE "5:cjc083_0412"
    INDEX 01 00:50:29
  TRACK 55 AUDIO
    TITLE "0:"
    INDEX 01 00:52:16
  TRACK 56 AUDIO
    TITLE "6:cjc083_0413"
    INDEX 01 00:52:55
  TRACK 57 AUDIO
    TITLE "0:"
    INDEX 01 00:54:19
  TRACK 58 AUDIO
    TITLE "7:cjc083_0414"
    INDEX 01 00:55:59
  TRACK 59 AUDIO
    TITLE "0:"
    INDEX 01 01:05:71
